<svg id="Layer_1" data-name="Layer 1" xmlns="http://www.w3.org/2000/svg" viewBox="0 0 356 356"><defs><style>.cls-1{fill:#97d1f4;}.cls-2{fill:#fff;}</style></defs><title>Ac</title><circle class="cls-1" cx="178" cy="178" r="178"/><path class="cls-2" d="M167.46,232.5l-13.65-34.87H109.86L96.36,232.5H83.46l43.35-110.09h10.73L180.66,232.5Zm-17.63-46.35-12.74-34q-2.47-6.45-5.1-15.82a142.15,142.15,0,0,1-4.73,15.82l-12.9,34Z"/><path class="cls-2" d="M242.68,132.68q-18.08,0-28.54,12t-10.46,33q0,21.52,10.09,33.26t28.76,11.74q11.47,0,26.17-4.13v11.18Q257.3,234,240.58,234q-24.22,0-37.39-14.7T190,177.53q0-17,6.34-29.7a45.44,45.44,0,0,1,18.3-19.65q12-6.9,28.16-6.9,17.23,0,30.14,6.3l-5.4,11A58.1,58.1,0,0,0,242.68,132.68Z"/></svg>