<?xml version="1.0" encoding="utf-8"?>
<!-- Generator: Adobe Illustrator 22.0.1, SVG Export Plug-In . SVG Version: 6.00 Build 0)  -->
<svg version="1.1" id="Layer_1" xmlns="http://www.w3.org/2000/svg" xmlns:xlink="http://www.w3.org/1999/xlink" x="0px" y="0px"
	 viewBox="0 0 347 347" style="enable-background:new 0 0 347 347;" xml:space="preserve">
<style type="text/css">
	.st0{fill:none;}
	.st1{fill:#FFFFFF;}
	.st2{fill:#D0CDE1;}
	.st3{fill:#97D1F4;}
	.st4{fill:#3B80C4;}
	.st5{opacity:0.15;enable-background:new    ;}
	.st6{opacity:0.15;fill:#000A74;enable-background:new    ;}
	.st7{fill:#2F2E41;}
	.st8{fill:#FFB8B8;}
	.st9{opacity:0.1;enable-background:new    ;}
</style>
<rect x="-538" y="11.3" class="st0" width="347" height="347"/>
<g id="Artboard_1_1_">
	<path class="st1" d="M317.8,55v136.2c-96.7-36.7-192.9-37.6-288.5,0V55H317.8z"/>
	<path class="st1" d="M317.8,200.4v65.4h-30.5c0,0.3,0,0.4,0,0.4l-0.6,0c0,0,0-0.2,0-0.4h-6.6c0,0.3,0,0.5,0,0.6l-0.6,0
		c0-0.2,0-0.4,0-0.5h-61.4c1.7,1.6,6.3,6.6,3.8,9.5c-0.5,0.6-1.1,1-1.8,1.2l6.6,10.9c0,0,2,2-3.6,3.9c-3.3,1.1-7,0.9-10.1-0.6
		c0,0,0.1-3.3-3.9-4.4c-4-1.1-2.5-4.4-2.3-8c0.1-1.1,0.3-2,0.7-2.6l-4.7,0.1c0,0-0.2-0.3-0.4-0.8l-10.9,0.3
		c-0.5,2.1-1.2,3.9-1.6,3.7c-0.9-0.5-19,1.1-28.4,2c-9.4,0.9-9.4-3.6-9.4-3.6c-3.8-4.1-2.2-8.2,1-11.5h-0.5
		c-0.5,0.5-0.8,0.6-0.8,0.6s-9.1,1.6-11.6-0.6H29.2v-65.4C122,164.3,218.1,164.3,317.8,200.4z"/>
	<g id="Group_8_1_" transform="translate(29.472 54.635)">
		<path class="st1" d="M288.3,0.3v136.2C191.6,99.9,95.4,99-0.2,136.6V0.3H288.3z"/>
		<polygon id="Rectangle_23_1_" class="st2" points="10.3,10.7 68.3,10.7 68.3,10.7 		"/>
		<polygon id="Rectangle_24_1_" class="st2" points="10.3,17.7 68.3,17.7 68.3,17.7 		"/>
		<rect id="Rectangle_25_1_" x="10.3" y="22.7" class="st2" width="58" height="1"/>
		<rect id="Rectangle_26_1_" x="21.3" y="33.7" class="st2" width="2" height="6"/>
		<rect id="Rectangle_27_1_" x="36.3" y="33.7" class="st3" width="6" height="6"/>
		<rect id="Rectangle_28_1_" x="51.3" y="33.7" class="st4" width="6" height="6"/>
		<rect id="Rectangle_29_1_" x="14.4" y="54.8" class="st2" width="48.4" height="8.3"/>
		<rect id="Rectangle_30_1_" x="14.4" y="67.5" class="st3" width="48.4" height="8.3"/>
		<rect id="Rectangle_31_1_" x="14.4" y="80.3" class="st4" width="48.4" height="8.3"/>
		<rect id="Rectangle_32_1_" x="14.4" y="54.8" class="st5" width="20" height="8.3"/>
		<rect id="Rectangle_33_1_" x="14.4" y="67.5" class="st6" width="6.5" height="8.3"/>
		<rect id="Rectangle_34_1_" x="14.4" y="80.3" class="st5" width="32.3" height="8.3"/>
		<path id="Path_44_1_" class="st2" d="M141.4,7v95c26.2,0,47.5-21.3,47.5-47.5S167.7,7,141.4,7z"/>
		<path id="Path_45_1_" class="st2" d="M138.3,9.1c-16.5,0-31.6,9.3-39,24.1l39,23.1V9.1z"/>
		<path id="Path_46_1_" class="st3" d="M96.1,33.8c-11.8,23.5-2.3,52,21.2,63.8c6.6,3.3,13.9,5,21.3,5V58.9L96.1,33.8z"/>
		<rect id="Rectangle_35_1_" x="222.3" y="30.7" class="st2" width="27" height="4"/>
		<rect id="Rectangle_36_1_" x="211.3" y="30.7" class="st3" width="5" height="6"/>
		<rect id="Rectangle_37_1_" x="222.3" y="39.7" class="st2" width="27" height="3"/>
		<rect id="Rectangle_38_1_" x="211.3" y="38.7" class="st3" width="5" height="5"/>
		<rect id="Rectangle_39_1_" x="222.3" y="48.7" class="st2" width="27" height="3"/>
		<rect id="Rectangle_40_1_" x="211.3" y="47.7" class="st3" width="5" height="5"/>
		<path id="Path_47_1_" class="st7" d="M126.1,72.5l-0.4-0.4L156,41.8h52.8v0.6h-52.6L126.1,72.5z"/>
		<path class="st1" d="M288.3,145.8v65.4H-0.2v-65.4C92.5,109.6,188.7,109.6,288.3,145.8z"/>
		<path class="st8" d="M128.9,187.6c0,0-1.2,5.4-2.2,10.8c-0.5,2.5-1,4.9-1.3,6.8c-0.6,3.6-1.6,5.2-2.3,6c-0.5,0.5-0.8,0.6-0.8,0.6
			s-9.1,1.6-11.6-0.6c-0.3-0.2-0.4-0.5-0.5-0.8c-1.1-3.4,10.1-2.7,10.1-2.7s0.6-0.3-0.5-8.8c-0.6-5.4-0.2-10.9,1.3-16.2l-1.8-5.7
			l-0.8-2.4l8.2,2.1v0l0.4,2L128.9,187.6z"/>
		<path id="Path_50_1_" class="st2" d="M119.2,157.9c0,0-4.8,1.8-4.8,6.5s1.8,11.3,2.9,11.7s8.6,5.5,10,1.9
			C128.7,174.3,119.2,157.9,119.2,157.9z"/>
		<polygon class="st8" points="176.7,212.7 174.5,220.3 172.9,220.3 162,220.6 155.9,220.8 159.1,214.3 162.1,214.1 169.1,213.9 
			173.1,213.3 		"/>
		<path class="st7" d="M192.5,220.6c-0.5,0.6-1.1,1-1.8,1.2c-1.7,0.7-3.9,0.5-5.7,0.1c-1.9-0.4-3.3-1-3.3-1l-0.5,0l-3.3,0l-4.7,0.1
			c0,0-0.2-0.3-0.4-0.8c-0.7-1.4-1.5-4,0.6-5c0,0,0-1.2-0.4-2c-0.2-0.4-0.5-0.7-0.8-0.7c-1.1,0.1-0.4-1,0.6-1.3
			c0.2,0,0.4-0.1,0.7-0.2c1.3-0.5,3.2-1.3,3.2-1.3l2.2,0.1l8.1,0.5l1.1,0.1c0,0,0.2,0.2,0.6,0.5C190.4,212.8,195,217.7,192.5,220.6z
			"/>
		<path id="Path_53_1_" class="st8" d="M178,205.6l3.6,17l7.5-1.5l-4.3-21.3l-4.5-2.4L178,205.6z"/>
		<path class="st7" d="M187.1,204.1c-0.5-0.6-1.1-0.9-1.6-1.1c-2.6-0.8-5.5,2.6-7,4.9c-0.8,1.1-1.2,2-1.2,2l-4.9-12.5
			c0,0-2,3.4-4.1,7.9c-2.1,4.5-9.3,5-9.3,5c0,0.3-0.1,0.6-0.2,0.9c-0.6,1.3-2.3,1.6-2.3,1.6s2.9,0.6,5.3,1.1c0.2,0,0.3,0.1,0.4,0.3
			c0.8,0.9,0.5,4-0.1,6.5c-0.5,2.1-1.2,3.9-1.6,3.7c-0.9-0.5-19,1.1-28.4,2c-9.4,0.9-9.4-3.6-9.4-3.6c-3.8-4.1-2.2-8.2,1-11.5
			c1.5-1.6,3.3-3,5-4.2c3.2-2.2,6.2-3.5,6.2-3.5l6.9-6l3.3-2.8l3.7-3.2l5.6-4.9l8.5-7.4c0,0,0.1-0.2,0.3-0.6c0.8-1.5,3-5.5,5.5-7.7
			c0.2-0.2,0.5-0.4,0.7-0.6c0.6-0.4,1.1-0.8,1.7-1c1.7-0.8,3.3-0.6,5,0.3c0.3,0.1,0.5,0.3,0.8,0.4c0.6,0.4,1.3,0.8,2,1.4
			C182.4,174.2,187.1,204.1,187.1,204.1z"/>
		<path class="st7" d="M193.6,236.7c-3.3,1.1-7,0.9-10.1-0.6c0,0,0.1-3.3-3.9-4.4c-4-1.1-2.5-4.4-2.3-8c0.1-1.1,0.3-2,0.7-2.6
			c0.8-1.5,1.9-1.8,2-1.4c0.1,0.3,0.5,0.6,1.1,0.6c0.5,0,1-0.1,1.4-0.6c0.8-0.8,1.6-1.5,2.5-2.1c1.5-0.5,2.8,0.5,3.7,1.4
			c0.7,0.7,1.1,1.5,1.1,1.5l0.9,1.5l6.6,10.9C197.3,232.8,199.3,234.8,193.6,236.7z"/>
		<path id="Path_56_1_" class="st8" d="M164.2,155.4c0,0,12,4.1,13.3,5s6.9,5,4.1,7.1s-5,3.5-10.4,1.9s-11.4-6.6-11.4-6.6
			L164.2,155.4z"/>
		<path id="Path_57_1_" class="st2" d="M152.2,149.8c0,0,4.8-0.9,8.1,1c2.4,1.5,4.5,3.4,6.3,5.6c0,0-3.1,6.6-5.4,7.6s-6.4-4-6.4-4
			L152.2,149.8z"/>
		<path id="Path_58_1_" class="st8" d="M130.2,146.2c0,0,0.1,4.9-0.4,5.4s6,15.3,13.2,8.8s1.6-9.1,1.6-9.1s-2.6-4.9-2.5-5.4
			s-11.7,0-11.7,0L130.2,146.2z"/>
		<path id="Path_59_1_" class="st9" d="M130.2,146.2c0,0,0.1,4.9-0.4,5.4s6,15.3,13.2,8.8s1.6-9.1,1.6-9.1s-2.6-4.9-2.5-5.4
			s-11.7,0-11.7,0L130.2,146.2z"/>
		<path id="Path_60_1_" class="st2" d="M132.2,155.6c0,0,4.8,3.3,6.8,2.5s4.5-4,4.8-4.3s13,25.4,13,25.4s-1.9,9.4-6.9,12.2
			s-4.9,4.9-5.6,6.8s-8.7-6-8.7-6l-5.1-21.8v-13.3L132.2,155.6z"/>
		<path id="Path_61_1_" class="st3" d="M130.2,149.8c-1.2-0.1-2.3,0.3-3.2,1.1c-1.6,1.4-9.3,6.5-8.9,7c1.8,3.4,3.3,6.9,4.5,10.5
			c0.8,2.9,1.9,3.3,1.9,3.3s2.6,1.9,2.3,3.3s-2,20.2,0.3,24.3c2.3,4.1,1.9,7.8,1.3,8.8c-0.6,1,6-2.9,6-2.9s9.9-8,10.7-10.4
			c0.5-1.6,0.8-3.3,1-5c0,0-6.4-25.3-8.4-26.7S130.2,149.8,130.2,149.8z"/>
		<path id="Path_62_1_" class="st3" d="M143.9,149.9c0,0,3.1-1.9,3.7-1.4s6.5,0.5,6.6,1s0.4,12.5,4.6,15.7s1.5,9.4,1.5,9.4l3.1,5
			c0,0-17,16.4-15.9,10.8c0.1-0.3,0-0.4,0-0.4s-6.6-28.4-5.8-29.9S144.4,151.7,143.9,149.9z"/>
		<path id="Path_63_1_" class="st8" d="M170.2,161.4l-17,5.9c0,0-16.9,4-14.3,8.6s13.8-3.3,13.8-3.3l22.7-2.5
			C175.4,170.1,184.4,162.5,170.2,161.4z"/>
		<circle id="Ellipse_14_1_" class="st8" cx="137" cy="141.6" r="9.3"/>
		<path id="Path_64_1_" class="st7" d="M129.6,132.4l-1.7-0.6c2.3-2.2,5.4-3.3,8.6-3.3l-1.4-1.4c2.4-0.7,4.9,0.1,6.5,2
			c1.8,1.8,3.4,3.8,4.7,6h1.8l-0.8,1.5l2.7,1.5l-2.8-0.3c0.3,1.3,0.2,2.7-0.3,4l-0.6,1.7c0,0-2.5-5-2.5-5.6v1.6c0,0-1.7-1.4-1.7-2.3
			l-0.9,1.1l-0.5-1.7l-5.8,1.7l0.9-1.4l-3.6,0.5l1.4-1.7c0,0-4.1,2-4.2,3.7s-2.2,3.9-2.2,3.9l-0.9-1.6
			C126.5,141.7,125.1,134.7,129.6,132.4z"/>
		<path class="st2" d="M264.7,166.7c-12.3,8.7-13.9,39.8-14.1,44.4c0,0.3,0,0.5,0,0.6l-0.6,0c0-0.2,0-0.4,0-0.5
			c0.2-6.2,0.9-12.4,2-18.5c2.5-13.5,6.6-22.4,12.3-26.3L264.7,166.7z"/>
		<path class="st2" d="M263.8,192.2c-5.2,3.6-5.9,16.5-6,18.9c0,0.3,0,0.4,0,0.4l-0.6,0c0,0,0-0.2,0-0.4c0.1-2.5,0.8-15.6,6.3-19.4
			L263.8,192.2z"/>
		<circle id="Ellipse_15_1_" class="st3" cx="268" cy="163.9" r="2.9"/>
		<circle id="Ellipse_16_1_" class="st3" cx="266.6" cy="188.7" r="2.9"/>
		<path id="Path_67_1_" class="st3" d="M256.5,168.5c0.3,2.2,0,4.5-0.9,6.5c-3.1-3.4-3.8-8.3-2-12.5
			C255.1,164.2,256,166.3,256.5,168.5z"/>
		<path id="Path_68_1_" class="st2" d="M265.9,176.9c-2.1,0.7-4.4,0.8-6.6,0.3c2.8-3.6,7.5-5.2,12-4.1
			C269.8,174.8,268,176.1,265.9,176.9z"/>
		<path id="Path_69_1_" class="st2" d="M266,198.8c-1.5,0.5-3.1,0.5-4.6,0.2c2-2.5,5.3-3.7,8.4-2.9
			C268.7,197.4,267.4,198.3,266,198.8z"/>
		<path class="st2" d="M231.9,160c-2.1,0-3.7-1.7-3.7-3.7c0-2.1,1.7-3.7,3.7-3.7c2.1,0,3.7,1.7,3.7,3.7S233.9,160,231.9,160
			C231.9,160,231.9,160,231.9,160z"/>
		<path class="st2" d="M231.9,153.1c-1.7,0-3.2,1.4-3.2,3.2s1.4,3.2,3.2,3.2s3.2-1.4,3.2-3.2S233.6,153.1,231.9,153.1L231.9,153.1z"
			/>
		<circle id="Ellipse_17_1_" class="st2" cx="213.8" cy="176.2" r="2.5"/>
		<circle id="Ellipse_18_1_" class="st2" cx="9.3" cy="150.7" r="2"/>
		<rect x="17" y="182.1" class="st2" width="7.5" height="7.5"/>
		<rect x="17.6" y="182.6" class="st2" width="6.3" height="6.3"/>
		<path class="st3" d="M72,163c-8,0-14.4,6.4-14.4,14.4c0,8,6.4,14.4,14.4,14.4c8,0,14.4-6.4,14.4-14.4S80,163,72,163
			C72,163,72,163,72,163z"/>
		<polygon class="st3" points="69.6,183.9 63.4,177.7 65.1,176 69.6,180.4 79,171 80.7,172.7 		"/>
	</g>
</g>
</svg>
