<?xml version="1.0" encoding="utf-8"?>
<!-- Generator: Adobe Illustrator 22.0.1, SVG Export Plug-In . SVG Version: 6.00 Build 0)  -->
<svg version="1.1" id="Layer_1" xmlns="http://www.w3.org/2000/svg" xmlns:xlink="http://www.w3.org/1999/xlink" x="0px" y="0px"
	 viewBox="0 0 346 346" style="enable-background:new 0 0 346 346;" xml:space="preserve">
<style type="text/css">
	.st0{fill:none;}
	.st1{fill:#FFFFFF;}
	.st2{fill:#D0CDE1;}
	.st3{fill:#97D1F4;}
	.st4{fill:#3B80C4;}
	.st5{opacity:0.15;enable-background:new    ;}
	.st6{opacity:0.15;fill:#000A74;enable-background:new    ;}
	.st7{fill:#2F2E41;}
	.st8{fill:#FFB8B8;}
	.st9{opacity:0.1;enable-background:new    ;}
	.st10{opacity:0.17;fill:#3B80C4;enable-background:new    ;}
</style>
<g id="Artboard_1_1_">
	<path class="st1" d="M317.3,62.5v136.2c-96.7-36.7-192.9-37.6-288.5,0V62.5H317.3z"/>
	<path class="st1" d="M317.3,207.9v65.4h-30.5c0,0.3,0,0.4,0,0.4h-0.6c0,0,0-0.2,0-0.4h-6.6c0,0.3,0,0.5,0,0.6H279
		c0-0.2,0-0.4,0-0.5h-61.4c1.7,1.6,6.3,6.6,3.8,9.5c-0.5,0.6-1.1,1-1.8,1.2l6.6,10.9c0,0,2,2-3.6,3.9c-3.3,1.1-7,0.9-10.1-0.6
		c0,0,0.1-3.3-3.9-4.4s-2.5-4.4-2.3-8c0.1-1.1,0.3-2,0.7-2.6l-4.7,0.1c0,0-0.2-0.3-0.4-0.8l-10.9,0.3c-0.5,2.1-1.2,3.9-1.6,3.7
		c-0.9-0.5-19,1.1-28.4,2c-9.4,0.9-9.4-3.6-9.4-3.6c-3.8-4.1-2.2-8.2,1-11.5h-0.5c-0.5,0.5-0.8,0.6-0.8,0.6s-9.1,1.6-11.6-0.6H28.8
		v-65.4C121.5,171.8,217.6,171.8,317.3,207.9z"/>
	<g id="Group_8_1_" transform="translate(29.472 54.635)">
		<path class="st1" d="M287.8,7.8V144c-96.7-36.7-192.9-37.6-288.5,0V7.8H287.8z"/>
		<rect id="Rectangle_25_1_" x="9.8" y="30.2" class="st2" width="58" height="1"/>
		<rect id="Rectangle_26_1_" x="20.8" y="41.2" class="st2" width="2" height="6"/>
		<rect id="Rectangle_27_1_" x="35.8" y="41.2" class="st3" width="6" height="6"/>
		<rect id="Rectangle_28_1_" x="50.8" y="41.2" class="st4" width="6" height="6"/>
		<rect id="Rectangle_29_1_" x="13.9" y="62.3" class="st2" width="48.4" height="8.3"/>
		<rect id="Rectangle_30_1_" x="13.9" y="75" class="st3" width="48.4" height="8.3"/>
		<rect id="Rectangle_31_1_" x="13.9" y="87.8" class="st4" width="48.4" height="8.3"/>
		<rect id="Rectangle_32_1_" x="13.9" y="62.3" class="st5" width="20" height="8.3"/>
		<rect id="Rectangle_33_1_" x="13.9" y="75" class="st6" width="6.5" height="8.3"/>
		<rect id="Rectangle_34_1_" x="13.9" y="87.8" class="st5" width="32.3" height="8.3"/>
		<path id="Path_44_1_" class="st2" d="M140.9,14.5v95c26.2,0,47.5-21.3,47.5-47.5S167.2,14.5,140.9,14.5z"/>
		<path id="Path_45_1_" class="st2" d="M137.8,16.6c-16.5,0-31.6,9.3-39,24.1l39,23.1V16.6z"/>
		<path id="Path_46_1_" class="st3" d="M95.6,41.3c-11.8,23.5-2.3,52,21.2,63.8c6.6,3.3,13.9,5,21.3,5V66.4L95.6,41.3z"/>
		<rect id="Rectangle_35_1_" x="221.8" y="38.2" class="st2" width="27" height="4"/>
		<rect id="Rectangle_36_1_" x="210.8" y="38.2" class="st3" width="5" height="6"/>
		<rect id="Rectangle_37_1_" x="221.8" y="47.2" class="st2" width="27" height="3"/>
		<rect id="Rectangle_38_1_" x="210.8" y="46.2" class="st3" width="5" height="5"/>
		<rect id="Rectangle_39_1_" x="221.8" y="56.2" class="st2" width="27" height="3"/>
		<rect id="Rectangle_40_1_" x="210.8" y="55.2" class="st3" width="5" height="5"/>
		<path id="Path_47_1_" class="st7" d="M125.6,80l-0.4-0.4l30.3-30.3h52.8v0.6h-52.6L125.6,80z"/>
		<path class="st1" d="M287.8,153.3v65.4H-0.7v-65.4C92,117.1,188.2,117.1,287.8,153.3z"/>
		<path class="st8" d="M128.4,195.1c0,0-1.2,5.4-2.2,10.8c-0.5,2.5-1,4.9-1.3,6.8c-0.6,3.6-1.6,5.2-2.3,6c-0.5,0.5-0.8,0.6-0.8,0.6
			s-9.1,1.6-11.6-0.6c-0.3-0.2-0.4-0.5-0.5-0.8c-1.1-3.4,10.1-2.7,10.1-2.7s0.6-0.3-0.5-8.8c-0.6-5.4-0.2-10.9,1.3-16.2l-1.8-5.7
			l-0.8-2.4l8.2,2.1l0,0l0.4,2L128.4,195.1z"/>
		<path id="Path_50_1_" class="st2" d="M118.7,165.4c0,0-4.8,1.8-4.8,6.5s1.8,11.3,2.9,11.7s8.6,5.5,10,1.9S118.7,165.4,118.7,165.4
			z"/>
		<polygon class="st8" points="176.2,220.2 174,227.8 172.4,227.8 161.5,228.1 155.4,228.3 158.6,221.8 161.6,221.6 168.6,221.4 
			172.6,220.8 		"/>
		<path class="st7" d="M192,228.1c-0.5,0.6-1.1,1-1.8,1.2c-1.7,0.7-3.9,0.5-5.7,0.1c-1.9-0.4-3.3-1-3.3-1h-0.5h-3.3l-4.7,0.1
			c0,0-0.2-0.3-0.4-0.8c-0.7-1.4-1.5-4,0.6-5c0,0,0-1.2-0.4-2c-0.2-0.4-0.5-0.7-0.8-0.7c-1.1,0.1-0.4-1,0.6-1.3
			c0.2,0,0.4-0.1,0.7-0.2c1.3-0.5,3.2-1.3,3.2-1.3l2.2,0.1l8.1,0.5l1.1,0.1c0,0,0.2,0.2,0.6,0.5C189.9,220.3,194.5,225.2,192,228.1z
			"/>
		<path id="Path_53_1_" class="st8" d="M177.5,213.1l3.6,17l7.5-1.5l-4.3-21.3l-4.5-2.4L177.5,213.1z"/>
		<path class="st7" d="M186.6,211.6c-0.5-0.6-1.1-0.9-1.6-1.1c-2.6-0.8-5.5,2.6-7,4.9c-0.8,1.1-1.2,2-1.2,2l-4.9-12.5
			c0,0-2,3.4-4.1,7.9s-9.3,5-9.3,5c0,0.3-0.1,0.6-0.2,0.9c-0.6,1.3-2.3,1.6-2.3,1.6s2.9,0.6,5.3,1.1c0.2,0,0.3,0.1,0.4,0.3
			c0.8,0.9,0.5,4-0.1,6.5c-0.5,2.1-1.2,3.9-1.6,3.7c-0.9-0.5-19,1.1-28.4,2c-9.4,0.9-9.4-3.6-9.4-3.6c-3.8-4.1-2.2-8.2,1-11.5
			c1.5-1.6,3.3-3,5-4.2c3.2-2.2,6.2-3.5,6.2-3.5l6.9-6l3.3-2.8l3.7-3.2l5.6-4.9l8.5-7.4c0,0,0.1-0.2,0.3-0.6c0.8-1.5,3-5.5,5.5-7.7
			c0.2-0.2,0.5-0.4,0.7-0.6c0.6-0.4,1.1-0.8,1.7-1c1.7-0.8,3.3-0.6,5,0.3c0.3,0.1,0.5,0.3,0.8,0.4c0.6,0.4,1.3,0.8,2,1.4
			C181.9,181.7,186.6,211.6,186.6,211.6z"/>
		<path class="st7" d="M193.1,244.2c-3.3,1.1-7,0.9-10.1-0.6c0,0,0.1-3.3-3.9-4.4c-4-1.1-2.5-4.4-2.3-8c0.1-1.1,0.3-2,0.7-2.6
			c0.8-1.5,1.9-1.8,2-1.4c0.1,0.3,0.5,0.6,1.1,0.6c0.5,0,1-0.1,1.4-0.6c0.8-0.8,1.6-1.5,2.5-2.1c1.5-0.5,2.8,0.5,3.7,1.4
			c0.7,0.7,1.1,1.5,1.1,1.5l0.9,1.5l6.6,10.9C196.8,240.3,198.8,242.3,193.1,244.2z"/>
		<path id="Path_56_1_" class="st8" d="M163.7,162.9c0,0,12,4.1,13.3,5s6.9,5,4.1,7.1s-5,3.5-10.4,1.9s-11.4-6.6-11.4-6.6
			L163.7,162.9z"/>
		<path id="Path_57_1_" class="st2" d="M151.7,157.3c0,0,4.8-0.9,8.1,1c2.4,1.5,4.5,3.4,6.3,5.6c0,0-3.1,6.6-5.4,7.6s-6.4-4-6.4-4
			L151.7,157.3z"/>
		<path id="Path_58_1_" class="st8" d="M129.7,153.7c0,0,0.1,4.9-0.4,5.4s6,15.3,13.2,8.8s1.6-9.1,1.6-9.1s-2.6-4.9-2.5-5.4
			s-11.7,0-11.7,0L129.7,153.7z"/>
		<path id="Path_59_1_" class="st9" d="M129.7,153.7c0,0,0.1,4.9-0.4,5.4s6,15.3,13.2,8.8s1.6-9.1,1.6-9.1s-2.6-4.9-2.5-5.4
			s-11.7,0-11.7,0L129.7,153.7z"/>
		<path id="Path_60_1_" class="st2" d="M131.7,163.1c0,0,4.8,3.3,6.8,2.5s4.5-4,4.8-4.3s13,25.4,13,25.4s-1.9,9.4-6.9,12.2
			s-4.9,4.9-5.6,6.8s-8.7-6-8.7-6l-5.1-21.8v-13.3L131.7,163.1z"/>
		<path id="Path_61_1_" class="st3" d="M129.7,157.3c-1.2-0.1-2.3,0.3-3.2,1.1c-1.6,1.4-9.3,6.5-8.9,7c1.8,3.4,3.3,6.9,4.5,10.5
			c0.8,2.9,1.9,3.3,1.9,3.3s2.6,1.9,2.3,3.3s-2,20.2,0.3,24.3s1.9,7.8,1.3,8.8s6-2.9,6-2.9s9.9-8,10.7-10.4c0.5-1.6,0.8-3.3,1-5
			c0,0-6.4-25.3-8.4-26.7S129.7,157.3,129.7,157.3z"/>
		<path id="Path_62_1_" class="st3" d="M143.4,157.4c0,0,3.1-1.9,3.7-1.4s6.5,0.5,6.6,1s0.4,12.5,4.6,15.7s1.5,9.4,1.5,9.4l3.1,5
			c0,0-17,16.4-15.9,10.8c0.1-0.3,0-0.4,0-0.4s-6.6-28.4-5.8-29.9S143.9,159.2,143.4,157.4z"/>
		<path id="Path_63_1_" class="st8" d="M169.7,168.9l-17,5.9c0,0-16.9,4-14.3,8.6s13.8-3.3,13.8-3.3l22.7-2.5
			C174.9,177.6,183.9,170,169.7,168.9z"/>
		<circle id="Ellipse_14_1_" class="st8" cx="136.5" cy="149.1" r="9.3"/>
		<path id="Path_64_1_" class="st7" d="M129.1,139.9l-1.7-0.6c2.3-2.2,5.4-3.3,8.6-3.3l-1.4-1.4c2.4-0.7,4.9,0.1,6.5,2
			c1.8,1.8,3.4,3.8,4.7,6h1.8l-0.8,1.5l2.7,1.5l-2.8-0.3c0.3,1.3,0.2,2.7-0.3,4l-0.6,1.7c0,0-2.5-5-2.5-5.6v1.6c0,0-1.7-1.4-1.7-2.3
			l-0.9,1.1l-0.5-1.7l-5.8,1.7l0.9-1.4l-3.6,0.5l1.4-1.7c0,0-4.1,2-4.2,3.7s-2.2,3.9-2.2,3.9l-0.9-1.6
			C126,149.2,124.6,142.2,129.1,139.9z"/>
		<path class="st2" d="M264.2,174.2c-12.3,8.7-13.9,39.8-14.1,44.4c0,0.3,0,0.5,0,0.6h-0.6c0-0.2,0-0.4,0-0.5
			c0.2-6.2,0.9-12.4,2-18.5c2.5-13.5,6.6-22.4,12.3-26.3L264.2,174.2z"/>
		<path class="st2" d="M263.3,199.7c-5.2,3.6-5.9,16.5-6,18.9c0,0.3,0,0.4,0,0.4h-0.6c0,0,0-0.2,0-0.4c0.1-2.5,0.8-15.6,6.3-19.4
			L263.3,199.7z"/>
		<circle id="Ellipse_15_1_" class="st3" cx="267.5" cy="171.4" r="2.9"/>
		<circle id="Ellipse_16_1_" class="st3" cx="266.1" cy="196.2" r="2.9"/>
		<path id="Path_67_1_" class="st3" d="M256,176c0.3,2.2,0,4.5-0.9,6.5c-3.1-3.4-3.8-8.3-2-12.5C254.6,171.7,255.5,173.8,256,176z"
			/>
		<path id="Path_68_1_" class="st2" d="M265.4,184.4c-2.1,0.7-4.4,0.8-6.6,0.3c2.8-3.6,7.5-5.2,12-4.1
			C269.3,182.3,267.5,183.6,265.4,184.4z"/>
		<path id="Path_69_1_" class="st2" d="M265.5,206.3c-1.5,0.5-3.1,0.5-4.6,0.2c2-2.5,5.3-3.7,8.4-2.9
			C268.2,204.9,266.9,205.8,265.5,206.3z"/>
		<path class="st2" d="M231.4,167.5c-2.1,0-3.7-1.7-3.7-3.7c0-2.1,1.7-3.7,3.7-3.7c2.1,0,3.7,1.7,3.7,3.7S233.4,167.5,231.4,167.5
			L231.4,167.5z"/>
		<path class="st2" d="M231.4,160.6c-1.7,0-3.2,1.4-3.2,3.2s1.4,3.2,3.2,3.2s3.2-1.4,3.2-3.2S233.1,160.6,231.4,160.6L231.4,160.6z"
			/>
		<circle id="Ellipse_17_1_" class="st2" cx="213.3" cy="183.7" r="2.5"/>
		<circle id="Ellipse_18_1_" class="st2" cx="8.8" cy="158.2" r="2"/>
		<rect x="16.5" y="189.6" class="st2" width="7.5" height="7.5"/>
		<rect x="17.1" y="190.1" class="st2" width="6.3" height="6.3"/>
		<path class="st3" d="M71.5,170.5c-8,0-14.4,6.4-14.4,14.4s6.4,14.4,14.4,14.4s14.4-6.4,14.4-14.4S79.5,170.5,71.5,170.5
			L71.5,170.5z"/>
		<polygon class="st3" points="69.1,191.4 62.9,185.2 64.6,183.5 69.1,187.9 78.5,178.5 80.2,180.2 		"/>
	</g>
</g>
</svg>
