<svg id="Layer_1" data-name="Layer 1" xmlns="http://www.w3.org/2000/svg" viewBox="0 0 187.03 95.35"><defs><style>.cls-1{fill:#fff;}</style></defs><title>flow_logo</title><path class="cls-1" d="M53.65,4.9A8.45,8.45,0,0,0,52.05,3a8.1,8.1,0,0,0-1.26-1,13.47,13.47,0,0,0-7.66-2A15.75,15.75,0,0,0,30.48,6.11a30.2,30.2,0,0,0-4,6.56,75.14,75.14,0,0,0-3,7.94Q22.15,24.77,21,29.15c-.79,2.93-1.63,5.76-2.5,8.47L18,39a32.79,32.79,0,0,0-7,2.67A14.72,14.72,0,0,0,8.18,43.5C7.4,44.17,7,44.75,7,45.23a2.61,2.61,0,0,0,.29,1.26,3.6,3.6,0,0,0,3.11,2l5-1.34L11.67,59.91Q10,65.73,8.32,70.82c-1.1,3.39-2.24,6.66-3.46,9.79s-2.32,5.72-3.34,7.74a12,12,0,0,0-1.52,4A2.73,2.73,0,0,0,.34,93.8a2.27,2.27,0,0,0,.86.85,6.07,6.07,0,0,0,3.24.7,7.09,7.09,0,0,0,6.65-4.12,105.62,105.62,0,0,0,4.78-11q2.45-6.5,6.37-20.8l4-14a92.2,92.2,0,0,1,9.31-.44l6.16.25c1.81,0,2.71-.93,2.71-2.77a5.49,5.49,0,0,0-2.86-4.65,10.31,10.31,0,0,0-2.81-1.29A12.33,12.33,0,0,0,35.17,36a48.27,48.27,0,0,0-6.44.68l4.56-15.46q1.07-3.54,2.13-6.5c2.4-6.43,5-9.65,7.86-9.65q3.11,0,3.1,4A6.7,6.7,0,0,1,46,11.15a10.65,10.65,0,0,1-3.73,5.43c-1,.58-1.46,1.23-1.46,1.94a4.12,4.12,0,0,0,.39,1.55,5.27,5.27,0,0,0,5.34,3.59c2.1,0,4-1.08,5.72-3.25a14.67,14.67,0,0,0,3.05-9.26A11,11,0,0,0,53.65,4.9Z"/><path class="cls-1" d="M75.36,3.07a7.79,7.79,0,0,0-1.92-2A6.09,6.09,0,0,0,69.75,0c-2.36,0-3.68,1.36-4,4.07a96.29,96.29,0,0,1-1.85,11.11,263.39,263.39,0,0,1-8.16,27.87L51.68,55.11q-1.84,5.58-3,9.94a28.13,28.13,0,0,0-1.18,7,12.75,12.75,0,0,0,.75,4.56,9.39,9.39,0,0,0,2,3.22,7.55,7.55,0,0,0,2.71,1.84,11.13,11.13,0,0,0,4,.58,9.91,9.91,0,0,0,5.41-2c2.93-1.94,4.4-4.34,4.4-7.22a.9.9,0,0,0-1-1,6.88,6.88,0,0,0-2.15.87,7.75,7.75,0,0,1-3.7.88c-1.42,0-2.13-.88-2.13-2.62q0-4.9,5.77-21.67l6.67-19.67q1.14-3.3,2.08-6.35c.33-1,.63-2.06.93-3q1.31-4.44,2.13-8.19a36.56,36.56,0,0,0,.92-6.37A4.7,4.7,0,0,0,75.36,3.07Z"/><path class="cls-1" d="M116.94,44.65a18.94,18.94,0,0,0-1.11-4.31,15.69,15.69,0,0,0-1.31-2.59c-2.3-3.72-5.84-5.75-10.61-6.12-.51-.05-1.06-.07-1.61-.07q-7.62,0-14.69,5.43l-1,.84a32.9,32.9,0,0,0-4.91,5.08,40.77,40.77,0,0,0-4.61,7.25,40.32,40.32,0,0,0-3,8.05,32.64,32.64,0,0,0-1,8.24,20.2,20.2,0,0,0,1.21,7.07,13.55,13.55,0,0,0,3.2,4.91,12.7,12.7,0,0,0,4.84,2.86,20.27,20.27,0,0,0,6.35.92A19.63,19.63,0,0,0,96,80.76a30,30,0,0,0,12.7-9.85,40.62,40.62,0,0,0,4.3-6.72,38.62,38.62,0,0,0,3.17-8.5A29,29,0,0,0,116.94,44.65ZM103.51,58.36a54.31,54.31,0,0,1-3.15,6.88,38.59,38.59,0,0,1-3.83,5.82,21.47,21.47,0,0,1-4.19,4.06A7.56,7.56,0,0,1,88,76.63a3.36,3.36,0,0,1-3.22-1.9,12,12,0,0,1-1-5.29,30.77,30.77,0,0,1,.81-7.16,46.56,46.56,0,0,1,2.29-7.37,53.4,53.4,0,0,1,3.35-6.83,41,41,0,0,1,2.67-4c.4-.57.82-1.1,1.26-1.62a21.61,21.61,0,0,1,4.07-3.86,6.53,6.53,0,0,1,3.6-1.42,4.41,4.41,0,0,1,2.46.58q2.18,1.45,2.18,6.79a34.28,34.28,0,0,1-1.94,11.16C104.17,56.55,103.85,57.44,103.51,58.36Z"/><path class="cls-1" d="M186.35,36.85a11,11,0,0,0-.6-1.51,6.06,6.06,0,0,0-5.8-3.78c-2.55,0-4.43.6-5.62,1.8s-1.34,2.11-.63,3q3.15,4,3.15,12.35a29.65,29.65,0,0,1-2.67,11.25,35.25,35.25,0,0,1-3,5.65,28.33,28.33,0,0,1-3.72,4.63,17.12,17.12,0,0,1-4.17,3.13,8.39,8.39,0,0,1-3.78,1.13,4,4,0,0,1-2.38-.58Q154.45,72,154.45,67q0-7.19,5.67-18.67L162,44.51c.39-.81.89-1.83,1.49-3a6.48,6.48,0,0,0,.79-3.31c-.1-1.65-1.55-2.53-4.36-2.62a9.54,9.54,0,0,0-4.41.72,4,4,0,0,0-1.8,2.19,125.07,125.07,0,0,1-14.49,24l0,0c-.68.87-1.34,1.69-2,2.47q-6.12,7.32-10.06,8.66A70.11,70.11,0,0,1,131,61.46l.8-2,1.27-3.2.6-1.52q1.41-3.39,2.55-6.55c.76-2.08,1.39-4.07,1.89-5.94a19.52,19.52,0,0,0,.75-5.08,5,5,0,0,0-1.8-3.84,7.44,7.44,0,0,0-2.34-1.3,12.1,12.1,0,0,0-3.93-.5A10.84,10.84,0,0,0,126,32.68,6.45,6.45,0,0,0,124.08,34a2.38,2.38,0,0,0-.69,1.62,1.66,1.66,0,0,0,.79,1.41c.53.37,1.1.79,1.7,1.26A7.89,7.89,0,0,1,127.44,40c.46.63.51,1.84.15,3.62a47.77,47.77,0,0,1-1.65,5.59c-.34,1-.73,2.1-1.16,3.31-.07.16-.11.32-.18.49l-4.27,11c-.64,1.71-1.3,3.56-2,5.53a.22.22,0,0,0,0,.08,18.36,18.36,0,0,0-1,6,6.87,6.87,0,0,0,.53,2.52c1,2.58,2.7,3.88,5.2,3.88a11,11,0,0,0,5.55-2.1,43,43,0,0,0,4.83-3.74,66.76,66.76,0,0,0,7.35-7.63c.7-.8,1.36-1.63,2-2.47,1-1.31,2-2.66,3-4.09a33.21,33.21,0,0,0-.58,6.26v.24a23.88,23.88,0,0,0,.48,5c1.05,5.26,3.95,8.16,8.68,8.67a12.4,12.4,0,0,0,1.65.1A13.37,13.37,0,0,0,158.7,82c3.46-.68,7.13-2.62,11-5.85a46.23,46.23,0,0,0,6.56-6.74A52.78,52.78,0,0,0,181.81,61a47.51,47.51,0,0,0,3.81-9.36A32.07,32.07,0,0,0,187,42.81,19.67,19.67,0,0,0,186.35,36.85Z"/></svg>