<?xml version="1.0" encoding="utf-8"?>
<!-- Generator: Adobe Illustrator 22.0.1, SVG Export Plug-In . SVG Version: 6.00 Build 0)  -->
<svg version="1.1" id="Layer_1" xmlns="http://www.w3.org/2000/svg" xmlns:xlink="http://www.w3.org/1999/xlink" x="0px" y="0px"
	 viewBox="0 0 200 200" style="enable-background:new 0 0 200 200;" xml:space="preserve">
<style type="text/css">
	.st0{fill:#FFFFFF;}
</style>
<g>
	<g>
		<path class="st0" d="M21.4,115.4l-0.1,2.3c-0.4,5.6-0.9,10.1-1.5,13.6c-0.6,3.5-1.3,5.6-2.1,6.4c-1.1,1.1-2.7,1.7-5,1.7
			c-2.4,0-4.2-0.5-5.2-1.4c-0.4-0.5-0.7-0.9-0.8-1.3c-0.1-0.4-0.2-1.1-0.2-2.1v-0.4v-0.4v-0.5c0.1-7.9,0.8-15.8,2.3-23.7
			c1.4-7.9,3.3-15.2,5.7-21.7c2.3-6.5,4.9-11.7,7.7-15.5s5.6-5.7,8.3-5.7c0.9,0,1.6,0.2,2.2,0.6c0.3,0.2,0.5,0.5,0.6,0.6
			c1.7,2.2,2.5,5.7,2.5,5.7c0.4,1.9,0.7,3.2,0.8,5.1c0.1,3,0.2,5.2-1.2,7.1c-1.4,1.9-4.3,3.4-5.8,2.4c-1.3-0.9-1-3.1-1-3.5v-0.8
			v-0.5c0-2.3,0-3.9-0.1-4.6c-0.1-0.7-0.3-1.2-0.6-1.5c-0.3,0.6-0.5,1.3-0.7,2.1c-0.7,3.4-1.2,6.4-1.7,9.1
			c-0.4,2.7-1.1,7.1-1.9,13.2c0,0.3-0.1,0.7-0.1,1.1c-0.1,0.4-0.1,0.8-0.1,1.1h0.6c0.3,0,0.6,0,0.9-0.1c0.3,0,0.7,0,1.3,0
			c1.1-0.1,2-0.2,2.9-0.2c3.3,0,5,0.9,5,2.6c0,0.9-0.3,2-0.9,3.3c-0.6,1.3-1.4,2.3-2.2,3.2c-0.9,0.8-1.9,1.4-3,1.8
			c-0.4,0.1-1.6,0.6-4.8,0.8C22.6,115.4,22.1,115.4,21.4,115.4z"/>
		<path class="st0" d="M61.6,88.5l-1.4,3.4c-1.8,4.3-3.5,8.6-5.1,12.9c-0.8,2.1-1.9,5.7-3.4,10.8c2.3-0.2,5.4-0.7,9.4-1.5
			c2.5-0.5,4-0.8,4.6-0.8c1,0,1.5,0.4,1.5,1.2c0,0.9-0.5,2.2-1.6,3.9c-1.1,1.7-2.3,3.1-3.6,4.3c-0.9,0.9-2.3,1.5-4.1,1.8
			c-1.8,0.3-4.7,0.5-8.5,0.5c-3.6,0-6.4-0.1-8.3-0.3c0,0-0.5-0.1-1.4-0.4c-1.6-0.7-2.4-2.1-2.4-4.2c0-1.5,0.4-4.3,1.3-8.4
			c0.9-4.1,2.2-9.2,3.8-15.2c3.8-13.5,6.7-21.9,8.6-25.1c0.6-1.1,1.4-1.9,2.3-2.5c0.9-0.6,2.2-1.1,3.8-1.4c1.6-0.3,3.4-0.5,5.4-0.5
			c1.9,0,3.2,0.2,4,0.7c0.8,0.5,1.2,1.3,1.2,2.5c0,1.1-0.5,3.3-1.5,6.4S63.5,83.7,61.6,88.5z"/>
		<path class="st0" d="M96.2,78.9c-1.9,1.9-3.3,3.5-4.2,4.8c-0.9,1.2-1.8,3-2.8,5.3c-0.8,1.7-1.3,3.5-1.6,5.3
			c-0.4,1.7-0.6,3.8-0.6,6.4c0,3.7,0.3,6.7,1,9.2c0.7,2.4,1.7,4.3,3.1,5.5c1.4,1.2,3,1.9,5,1.9c1.6,0,3.2-0.6,4.8-1.7
			c1.6-1.1,3.1-2.6,4.4-4.5c1.3-1.9,2.4-3.9,3.2-6.2c0.8-2.3,1.2-4.5,1.2-6.6c0-3.8-1.3-7.8-3.9-12c-1-1.7-1.5-2.8-1.5-3.4
			c0-1.1,0.6-2.3,1.9-3.4c1.4-1.4,3.1-2.6,4.9-3.7c1.8-1.1,3.3-1.6,4.4-1.6c0.6,0,1.3,0.1,2,0.4c0.7,0.3,1.2,0.7,1.6,1.1
			c0.9,0.9,1.6,2.6,2.2,5.1c0.6,2.5,0.9,5.1,0.9,7.9c0,6.6-1.3,12.7-4,18.3s-6.4,10-11,13.3c-4.6,3.3-9.6,4.9-15,4.9
			c-3.1,0-6.2-0.6-9.2-1.7c-3-1.1-5.5-2.7-7.4-4.6c-3.2-3.2-4.8-7.4-4.8-12.6c0-3,0.6-6.2,1.8-9.6c1.2-3.4,2.8-6.7,4.8-9.9
			c2.1-3.2,4.4-6.1,7.1-8.8c2.7-2.7,5.5-4.8,8.3-6.3c2.6-1.4,5.4-2.5,8.4-3.4c3-0.8,5.6-1.3,7.9-1.3c3.2,0,4.8,0.5,4.8,1.5
			c0,0.4-0.3,1-1,1.8c-1.2,1.1-2.3,2-3.2,2.4c-0.9,0.5-2.4,1-4.5,1.6c-2.2,0.7-3.9,1.3-4.9,1.8S97.7,77.5,96.2,78.9z"/>
		<path class="st0" d="M155.6,99.7h-0.2c-2.2,4.2-4.4,8-6.7,11.5c-2.8,4.1-5.1,7.2-7,9.2c-1,1-2.3,1.8-3.9,2.6
			c-1.5,0.7-2.9,1.1-4,1.1c-0.3,0-0.7-0.1-1.1-0.3c-0.5-0.2-0.8-0.4-1.1-0.8c-1.4-1.5-2.6-5.5-3.4-11.9c-0.9-6.4-1.3-14.1-1.3-23.2
			c0-7.4,0.5-12.3,1.6-14.7c0.4-1,1.1-1.9,1.9-2.6s2.1-1.3,3.7-2c1.5-0.6,3-1.1,4.5-1.5c1.6-0.4,2.8-0.6,3.7-0.6
			c0.8,0,1.4,0.2,1.9,0.6c0.5,0.4,0.7,0.9,0.7,1.6c0,0.3-0.1,0.7-0.2,1.1c-0.6,2.6-1.1,6.3-1.6,11c-0.4,3.1-0.6,5.7-0.8,7.6
			c-0.1,2-0.3,4.6-0.4,8c-0.1,3.4-0.2,6.7-0.2,10l0.2,0.2c1.3-1.6,2.6-3.6,4-5.8c0.5-0.8,1-1.6,1.5-2.3c0.5-0.7,1-1.6,1.6-2.6
			c1.3-2.3,2.4-4.5,3.4-6.7c0.5-1,1-2,1.3-3.1c4.2-9.3,7.2-14.8,8.9-16.2c0.8-0.7,2.2-1.4,4.3-2c2.1-0.6,4-0.9,5.6-0.9
			c1.1,0,1.9,0.2,2.6,0.7c0.7,0.5,1.1,1.1,1.1,2c0,0.7-0.4,2.2-1.1,4.4c-1.5,4.2-2.6,8.8-3.5,13.8c-0.9,5-1.4,9.5-1.4,13.4
			c0,8,1.5,12,4.6,12c0.9,0,1.8-0.7,2.7-2c0.9-1.3,1.7-3,2.4-5.1c0.7-2.1,1.2-4.5,1.6-7.2c0.4-2.8,0.6-5.6,0.6-8.5
			c0-1.7-0.1-3.8-0.3-6.2c-0.1-0.6-0.1-1.2-0.1-1.8c0-3.1,1.7-6.2,5.1-9.3c1.7-1.6,2.9-2.4,3.7-2.4c1.9,0,2.9,3.6,2.9,10.9
			c0,5.2-0.6,10.1-1.7,14.9c-1.4,5.7-3.3,10.5-5.8,14.5c-1.3,2.2-2.8,4.2-4.6,6.2c-1.8,2-3.5,3.6-5.3,4.8c-2.2,1.5-4.6,2.3-7,2.3
			c-4.6,0-8-1.8-10.2-5.3c-2.2-3.6-3.4-9.1-3.4-16.6V99.7z"/>
	</g>
	<path class="st0" d="M49.6,60.5"/>
</g>
</svg>
