<?xml version="1.0" encoding="utf-8"?>
<!-- Generator: Adobe Illustrator 22.0.1, SVG Export Plug-In . SVG Version: 6.00 Build 0)  -->
<svg version="1.1" id="Layer_1" xmlns="http://www.w3.org/2000/svg" xmlns:xlink="http://www.w3.org/1999/xlink" x="0px" y="0px"
	 viewBox="0 0 76 76" style="enable-background:new 0 0 76 76;" xml:space="preserve">
<style type="text/css">
	.st0{opacity:0.17;fill:#D62B2B;}
	.st1{fill:#D62B2B;}
	.st2{opacity:0.17;fill:#8ADB84;}
	.st3{fill:#8ADB84;}
</style>
<circle id="Ellipse_19" class="st0" cx="38" cy="38" r="38"/>
<g id="Icon_feather-arrow-down-circle" transform="translate(1.5 1.5)">
	<g id="Path_73">
		<path class="st1" d="M36.5,51c8,0,14.5-6.5,14.5-14.5S44.5,22,36.5,22S22,28.5,22,36.5S28.5,51,36.5,51z M36.5,25
			C42.8,25,48,30.2,48,36.5S42.8,48,36.5,48C30.2,48,25,42.8,25,36.5S30.2,25,36.5,25z"/>
	</g>
	<g id="Path_74">
		<path class="st1" d="M37.6,30.3c-0.1-0.1-0.3-0.3-0.5-0.3C37.3,30,37.4,30.1,37.6,30.3z"/>
		<path class="st1" d="M35.4,30.3c0.1-0.1,0.3-0.3,0.5-0.3C35.7,30,35.6,30.1,35.4,30.3z"/>
	</g>
	<g id="Path_75">
		<path class="st1" d="M30.3,35.4l5.2-5.2c0.1-0.1,0.3-0.3,0.5-0.3c0.2-0.1,0.4-0.1,0.6-0.1s0.4,0,0.6,0.1c0.2,0.1,0.3,0.2,0.5,0.3
			l5.2,5.2c0.6,0.6,0.6,1.5,0,2.1c-0.6,0.6-1.5,0.6-2.1,0L38,34.9v6.7c0,0.8-0.7,1.5-1.5,1.5S35,42.5,35,41.7v-6.7l-2.6,2.6
			c-0.6,0.6-1.5,0.6-2.1,0C29.7,37,29.7,36,30.3,35.4z"/>
	</g>
</g>
</svg>
