<?xml version="1.0" encoding="utf-8"?>
<!-- Generator: Adobe Illustrator 22.0.1, SVG Export Plug-In . SVG Version: 6.00 Build 0)  -->
<svg version="1.1" id="Layer_1" xmlns="http://www.w3.org/2000/svg" xmlns:xlink="http://www.w3.org/1999/xlink" x="0px" y="0px"
	 viewBox="0 0 76 76" style="enable-background:new 0 0 76 76;" xml:space="preserve">
<style type="text/css">
	.st0{opacity:0.17;fill:#D62B2B;}
	.st1{fill:#D62B2B;}
	.st2{opacity:0.17;fill:#8ADB84;}
	.st3{fill:#8ADB84;}
</style>
<circle id="Ellipse_19_1_" class="st2" cx="38" cy="38" r="38"/>
<g id="Icon_feather-arrow-down-circle_1_" transform="translate(1.5 1.5)">
	<g id="Path_73_1_">
		<path class="st3" d="M36.5,22c-8,0-14.5,6.5-14.5,14.5S28.5,51,36.5,51S51,44.5,51,36.5S44.5,22,36.5,22z M36.5,48
			C30.2,48,25,42.8,25,36.5S30.2,25,36.5,25C42.8,25,48,30.2,48,36.5S42.8,48,36.5,48z"/>
	</g>
	<g id="Path_74_1_">
		<path class="st3" d="M35.4,42.7c0.1,0.1,0.3,0.3,0.5,0.3C35.7,43,35.6,42.9,35.4,42.7z"/>
		<path class="st3" d="M37.6,42.7c-0.1,0.1-0.3,0.3-0.5,0.3C37.3,43,37.4,42.9,37.6,42.7z"/>
	</g>
	<g id="Path_75_1_">
		<path class="st3" d="M42.7,37.6l-5.2,5.2c-0.1,0.1-0.3,0.3-0.5,0.3c-0.2,0.1-0.4,0.1-0.6,0.1s-0.4,0-0.6-0.1
			c-0.2-0.1-0.3-0.2-0.5-0.3l-5.2-5.2c-0.6-0.6-0.6-1.5,0-2.1c0.6-0.6,1.5-0.6,2.1,0l2.6,2.6v-6.7c0-0.8,0.7-1.5,1.5-1.5
			s1.5,0.7,1.5,1.5v6.7l2.6-2.6c0.6-0.6,1.5-0.6,2.1,0C43.3,36,43.3,37,42.7,37.6z"/>
	</g>
</g>
</svg>
